<svg xmlns="http://www.w3.org/2000/svg" viewBox="0 0 48 48" width="100" height="100"><path d="M6 10c0-2.21 1.79-4 4-4h28c2.21 0 4 1.79 4 4v28c0 2.21-1.79 4-4 4H10c-2.21 0-4-1.79-4-4z" fill="#03a9f4"/><path d="M20.016 19.176h-2v4.433h1.972c.547 0 .969-.18 1.27-.539.3-.355.449-.879.449-1.562 0-.711-.152-1.274-.46-1.695a1.464 1.464 0 0 0-1.231-.637z" fill="#020f16"/><path d="M9 9v30h30V9zm14.363 15.79c-.824.808-1.968 1.21-3.433 1.21h-1.914v5h-2.871V16.781h4.843c1.407 0 2.528.438 3.364 1.309.835.87 1.253 2.004 1.253 3.398 0 1.395-.414 2.492-1.242 3.301zm9.32 5.546c-.71.574-1.644.86-2.792.86-.778 0-1.461-.153-2.051-.454a3.473 3.473 0 0 1-1.395-1.265 3.254 3.254 0 0 1-.504-1.75h2.63c.015.484.124.843.335 1.085.211.243.559.36 1.04.36.741 0 1.113-.332 1.113-1.004 0-.234-.11-.453-.336-.648-.227-.2-.723-.47-1.496-.805-1.141-.465-1.922-.942-2.352-1.438-.426-.496-.64-1.109-.64-1.847 0-.922.335-1.688 1.003-2.29.664-.6 1.551-.902 2.649-.902 1.16 0 2.086.301 2.785.899.695.597 1.043 1.402 1.043 2.41h-2.762c0-.86-.36-1.29-1.074-1.29-.293 0-.535.095-.723.274-.191.184-.285.438-.285.762 0 .234.106.441.313.621.21.18.699.434 1.476.766 1.125.418 1.922.883 2.387 1.394.469.512.7 1.172.7 1.985 0 .945-.356 1.703-1.063 2.277z" fill="#020f16"/></svg>